<svg xmlns="http://www.w3.org/2000/svg" version="1.1" xmlns:xlink="http://www.w3.org/1999/xlink" xmlns:svgjs="http://svgjs.dev/svgjs" width="128" height="128" viewBox="0 0 128 128"><g transform="matrix(0.8046875,0,0,0.8046875,12.760752631578946,12.760752631578946)"><svg viewBox="0 0 95 95" data-background-color="#0c1d36" preserveAspectRatio="xMidYMid meet" height="128" width="128" xmlns="http://www.w3.org/2000/svg" xmlns:xlink="http://www.w3.org/1999/xlink"><g id="tight-bounds" transform="matrix(1,0,0,1,-0.24049999999999727,-0.24049999999999727)"><svg viewBox="0 0 95.481 95.481" height="95.481" width="95.481"><g><svg viewBox="0 0 95.481 95.481" height="95.481" width="95.481"><g><svg viewBox="0 0 95.481 95.481" height="95.481" width="95.481"><g id="textblocktransform"><svg viewBox="0 0 95.481 95.481" height="95.481" width="95.481" id="textblock"><g><svg viewBox="0 0 95.481 95.481" height="95.481" width="95.481"><g><svg viewBox="0 0 95.481 95.481" height="95.481" width="95.481"><g><svg xmlns="http://www.w3.org/2000/svg" xmlns:xlink="http://www.w3.org/1999/xlink" version="1.1" x="0" y="0" viewBox="0.5000000000000002 0.5 71 71" enable-background="new 0 0 72 72" xml:space="preserve" height="95.481" width="95.481" class="icon-icon-0" data-fill-palette-color="accent" id="icon-0"><g fill="#f9cd1a" data-fill-palette-color="accent"><g fill="#f9cd1a" data-fill-palette-color="accent"><path d="M69.8 0.5H2.2c-0.9 0-1.7 0.8-1.7 1.7v67.6c0 0.9 0.8 1.7 1.7 1.7h67.6c0.9 0 1.7-0.8 1.7-1.7V2.2C71.5 1.3 70.7 0.5 69.8 0.5zM25 4.5c1.2 0 2.1 0.9 2.1 2.1 0 1.2-0.9 2.1-2.1 2.1-1.2 0-2.1-0.9-2.1-2.1C22.9 5.4 23.8 4.5 25 4.5zM16.1 4.5c1.2 0 2.1 0.9 2.1 2.1 0 1.2-0.9 2.1-2.1 2.1S14 7.8 14 6.6C14 5.4 15 4.5 16.1 4.5zM7.3 4.5c1.2 0 2.1 0.9 2.1 2.1 0 1.2-0.9 2.1-2.1 2.1S5.2 7.8 5.2 6.6C5.2 5.4 6.1 4.5 7.3 4.5zM66.5 64.8c0 0.9-0.8 1.7-1.7 1.7H7.2c-0.9 0-1.7-0.8-1.7-1.7V16.5c0-0.9 0.8-1.7 1.7-1.7h57.6c0.9 0 1.7 0.8 1.7 1.7V64.8z" fill="#000000" data-fill-palette-color="accent"></path></g><g fill="#f9cd1a" data-fill-palette-color="accent"><g fill="#f9cd1a" data-fill-palette-color="accent"><g fill="#f9cd1a" data-fill-palette-color="accent"><path d="M50.2 51.4c-0.7 0-1.4-0.3-1.9-0.9-0.9-1-0.7-2.6 0.2-3.5l5.9-5.9c0.5-0.5 0.5-1.4 0-1.9l-5.9-5.9c-0.9-0.9-1.1-2.4-0.3-3.4 1-1.2 2.7-1.2 3.7-0.2l8.8 8.8c0.5 0.5 0.7 1.1 0.7 1.8 0 0.7-0.3 1.3-0.7 1.8L52 50.7C51.5 51.1 50.8 51.4 50.2 51.4z" fill="#000000" data-fill-palette-color="accent"></path></g><g fill="#f9cd1a" data-fill-palette-color="accent"><path d="M21.8 51.4c-0.6 0-1.3-0.2-1.8-0.7l-8.8-8.8c-0.5-0.5-0.7-1.1-0.7-1.8 0-0.7 0.3-1.3 0.7-1.8l8.7-8.7c0.9-0.9 2.4-1.1 3.4-0.3 1.2 1 1.2 2.7 0.2 3.7l-6 6c-0.5 0.5-0.5 1.4 0 1.9l5.9 5.9c0.9 0.9 1.1 2.5 0.2 3.5C23.2 51.1 22.5 51.4 21.8 51.4z" fill="#000000" data-fill-palette-color="accent"></path></g></g><g fill="#f9cd1a" data-fill-palette-color="accent"><path d="M30.7 57.4c-0.3 0-0.6 0-0.8-0.1-1.3-0.5-2-1.9-1.5-3.2l10.5-29.5c0.5-1.3 1.9-2 3.2-1.5 1.3 0.5 2 1.9 1.5 3.2L33.1 55.7C32.7 56.7 31.8 57.4 30.7 57.4z" fill="#000000" data-fill-palette-color="accent"></path></g></g></g></svg></g></svg></g></svg></g></svg></g></svg></g></svg></g><defs></defs></svg><rect width="95.481" height="95.481" fill="none" stroke="none" visibility="hidden"></rect></g></svg></g></svg>