<svg xmlns="http://www.w3.org/2000/svg" version="1.1" xmlns:xlink="http://www.w3.org/1999/xlink" xmlns:svgjs="http://svgjs.dev/svgjs" width="2000" height="282" viewBox="0 0 2000 282"><g transform="matrix(1,0,0,1,-1.2109729111613206,0.28364922818417426)"><svg viewBox="0 0 396 56" data-background-color="#0c1d36" preserveAspectRatio="xMidYMid meet" height="282" width="2000" xmlns="http://www.w3.org/2000/svg" xmlns:xlink="http://www.w3.org/1999/xlink"><g id="tight-bounds" transform="matrix(1,0,0,1,0.2397726364099526,-0.05632750630607575)"><svg viewBox="0 0 395.52 56.112655012612144" height="56.112655012612144" width="395.52"><g><svg viewBox="0 0 417.5022041747898 59.23128324702958" height="56.112655012612144" width="395.52"><g transform="matrix(1,0,0,1,61.38168417478978,0)"><svg viewBox="0 0 356.12052000000006 59.23128324702958" height="59.23128324702958" width="356.12052000000006"><g><path d="M0 59.231v-59.231h356.121v59.231z" fill="#f9cc0b" stroke="transparent" stroke-width="0" rx="0%" data-fill-palette-color="tertiary"></path><path d="M3.283 55.948v-52.665h349.554v52.665z" fill="#0c1d36" stroke="transparent" stroke-width="0" rx="0%" data-fill-palette-color="quaternary"></path><path d="M9.85 49.381v-39.531h336.421v39.531z" fill="#f9cc0b" stroke="transparent" stroke-width="0" data-fill-palette-color="tertiary"></path></g><g transform="matrix(1,0,0,1,19.69974,19.69974)" id="textblocktransform"><svg viewBox="0 0 316.7210400000001 19.831803247029583" height="19.831803247029583" width="316.7210400000001" id="textblock"><g><svg viewBox="0 0 316.7210400000001 19.831803247029583" height="19.831803247029583" width="316.7210400000001"><g transform="matrix(1,0,0,1,0,0)"><svg width="316.7210400000001" viewBox="3.690000057220459 -35.51045227050781 574.8599853515625 36.00045394897461" height="19.831803247029583" data-palette-color="#0c1d36"><path d="M35.84-6.35L35.84 0 6.88 0Q6.2 0 5.62-0.24 5.03-0.49 4.6-0.92 4.17-1.34 3.93-1.93 3.69-2.51 3.69-3.2L3.69-3.2 3.69-35.01 10.03-35.01 10.03-6.35 35.84-6.35ZM46.9-35.01L46.9 0 40.55 0 40.55-35.01 46.9-35.01ZM86.47-6.35L86.47 0 57.51 0Q56.83 0 56.25-0.24 55.66-0.49 55.23-0.92 54.8-1.34 54.56-1.93 54.32-2.51 54.32-3.2L54.32-3.2 54.32-35.01 60.66-35.01 60.66-6.35 86.47-6.35ZM120.89-35.01L120.89-23.29Q120.89-21.12 120.34-19.41 119.79-17.7 118.89-16.39 117.99-15.09 116.78-14.16 115.57-13.23 114.27-12.63 112.98-12.04 111.65-11.77 110.32-11.5 109.15-11.5L109.15-11.5 106.58-11.5 106.58 0 100.19 0 100.19-11.5 97.65-11.5Q96.48-11.5 95.15-11.77 93.82-12.04 92.51-12.63 91.2-13.23 90.01-14.16 88.81-15.09 87.9-16.39 86.98-17.7 86.43-19.42 85.88-21.14 85.88-23.29L85.88-23.29 85.88-35.01 92.23-35.01 92.23-23.29Q92.23-22.05 92.62-21.06 93.01-20.07 93.72-19.36 94.43-18.65 95.44-18.27 96.45-17.9 97.7-17.9L97.7-17.9 109.15-17.9Q110.05-18.04 111-18.27 111.96-18.51 112.74-19.07 113.52-19.63 114.03-20.63 114.54-21.63 114.54-23.29L114.54-23.29 114.54-35.01 120.89-35.01ZM160.78-31.81L160.78 0 154.43 0 154.43-8.59 132.12-8.59 132.12 0 125.77 0 125.77-17.5Q125.77-21.34 127.09-24.56 128.41-27.78 130.75-30.1 133.1-32.42 136.29-33.72 139.49-35.01 143.28-35.01L143.28-35.01 157.58-35.01Q158.24-35.01 158.83-34.77 159.41-34.52 159.85-34.08 160.29-33.64 160.54-33.06 160.78-32.47 160.78-31.81L160.78-31.81ZM132.12-17.5L132.12-14.94 154.43-14.94 154.43-28.66 143.28-28.66Q142.98-28.66 142.04-28.58 141.1-28.49 139.87-28.15 138.64-27.81 137.27-27.1 135.9-26.39 134.76-25.15 133.61-23.9 132.86-22.03 132.12-20.17 132.12-17.5L132.12-17.5ZM203.14-35.01L203.14-2.71Q203.14-2.03 202.88-1.44 202.62-0.85 202.2-0.43 201.77 0 201.18 0.24 200.6 0.49 199.94 0.49L199.94 0.49Q199.35 0.49 198.75 0.27 198.16 0.05 197.69-0.44L197.69-0.44 174.5-24.66 174.5 0 168.15 0 168.15-32.3Q168.15-33.28 168.7-34.07 169.25-34.86 170.1-35.25L170.1-35.25Q171.01-35.62 171.96-35.44 172.91-35.25 173.6-34.55L173.6-34.55 196.79-10.35 196.79-35.01 203.14-35.01ZM261.12-31.81L261.12 0 254.77 0 254.77-8.59 232.45-8.59 232.45 0 226.11 0 226.11-17.5Q226.11-21.34 227.42-24.56 228.74-27.78 231.09-30.1 233.43-32.42 236.63-33.72 239.83-35.01 243.61-35.01L243.61-35.01 257.92-35.01Q258.58-35.01 259.16-34.77 259.75-34.52 260.19-34.08 260.63-33.64 260.87-33.06 261.12-32.47 261.12-31.81L261.12-31.81ZM232.45-17.5L232.45-14.94 254.77-14.94 254.77-28.66 243.61-28.66Q243.32-28.66 242.38-28.58 241.44-28.49 240.2-28.15 238.97-27.81 237.6-27.1 236.24-26.39 235.09-25.15 233.94-23.9 233.2-22.03 232.45-20.17 232.45-17.5L232.45-17.5ZM300.64-6.35L300.64 0 271.68 0Q271 0 270.41-0.24 269.83-0.49 269.4-0.92 268.97-1.34 268.73-1.93 268.49-2.51 268.49-3.2L268.49-3.2 268.49-35.01 274.83-35.01 274.83-6.35 300.64-6.35ZM340.24-20.36L340.24-14.65Q340.24-11.45 339.13-8.76 338.01-6.08 336.06-4.14 334.11-2.2 331.42-1.1 328.74 0 325.59 0L325.59 0 308.45 0Q307.77 0 307.18-0.24 306.59-0.49 306.17-0.92 305.74-1.34 305.5-1.93 305.25-2.51 305.25-3.2L305.25-3.2 305.25-31.81Q305.25-32.47 305.5-33.06 305.74-33.64 306.17-34.08 306.59-34.52 307.18-34.77 307.77-35.01 308.45-35.01L308.45-35.01 325.59-35.01Q328.74-35.01 331.42-33.91 334.11-32.81 336.06-30.87 338.01-28.93 339.13-26.23 340.24-23.54 340.24-20.36L340.24-20.36ZM333.89-14.65L333.89-20.36Q333.89-22.22 333.29-23.75 332.69-25.29 331.59-26.38 330.5-27.47 328.97-28.06 327.44-28.66 325.59-28.66L325.59-28.66 311.6-28.66 311.6-6.35 325.59-6.35Q327.44-6.35 328.97-6.95 330.5-7.54 331.59-8.63 332.69-9.72 333.29-11.24 333.89-12.77 333.89-14.65L333.89-14.65ZM352.86-35.01L352.86 0 346.51 0 346.51-35.01 352.86-35.01ZM401.02-32.3L401.02 0 394.63 0 394.63-20.85 383.37-1.05Q382.96-0.29 382.21 0.1 381.47 0.49 380.61 0.49L380.61 0.49Q379.78 0.49 379.06 0.1 378.34-0.29 377.93-1.05L377.93-1.05 366.62-20.85 366.62 0 360.28 0 360.28-32.3Q360.28-33.4 360.92-34.25 361.57-35.11 362.62-35.4L362.62-35.4Q363.13-35.52 363.64-35.49 364.16-35.45 364.63-35.27 365.11-35.08 365.5-34.75 365.89-34.42 366.16-33.96L366.16-33.96 380.61-8.84 395.07-33.96Q395.63-34.89 396.62-35.28 397.6-35.67 398.68-35.4L398.68-35.4Q399.7-35.11 400.36-34.25 401.02-33.4 401.02-32.3L401.02-32.3ZM442.74-31.81L442.74 0 436.4 0 436.4-8.59 414.08-8.59 414.08 0 407.73 0 407.73-17.5Q407.73-21.34 409.05-24.56 410.37-27.78 412.71-30.1 415.06-32.42 418.26-33.72 421.45-35.01 425.24-35.01L425.24-35.01 439.55-35.01Q440.2-35.01 440.79-34.77 441.38-34.52 441.82-34.08 442.26-33.64 442.5-33.06 442.74-32.47 442.74-31.81L442.74-31.81ZM414.08-17.5L414.08-14.94 436.4-14.94 436.4-28.66 425.24-28.66Q424.95-28.66 424.01-28.58 423.07-28.49 421.83-28.15 420.6-27.81 419.23-27.1 417.87-26.39 416.72-25.15 415.57-23.9 414.83-22.03 414.08-20.17 414.08-17.5L414.08-17.5ZM483.76-10.3L483.76-10.3Q483.76-8.42 483.28-6.92 482.8-5.42 482.02-4.27 481.24-3.13 480.19-2.32 479.14-1.51 478.02-1 476.9-0.49 475.74-0.24 474.58 0 473.55 0L473.55 0 449.06 0 449.06-6.35 473.55-6.35Q475.38-6.35 476.4-7.42 477.41-8.5 477.41-10.3L477.41-10.3Q477.41-11.18 477.14-11.91 476.87-12.65 476.37-13.18 475.87-13.72 475.15-14.01 474.43-14.31 473.55-14.31L473.55-14.31 458.95-14.31Q457.41-14.31 455.63-14.86 453.85-15.41 452.32-16.63 450.8-17.85 449.78-19.82 448.77-21.8 448.77-24.66L448.77-24.66Q448.77-27.51 449.78-29.48 450.8-31.45 452.32-32.68 453.85-33.91 455.63-34.46 457.41-35.01 458.95-35.01L458.95-35.01 480.56-35.01 480.56-28.66 458.95-28.66Q457.15-28.66 456.13-27.56 455.12-26.46 455.12-24.66L455.12-24.66Q455.12-22.83 456.13-21.77 457.15-20.7 458.95-20.7L458.95-20.7 473.55-20.7 473.6-20.7Q474.63-20.68 475.77-20.42 476.92-20.17 478.06-19.63 479.19-19.09 480.22-18.27 481.24-17.46 482.04-16.31 482.83-15.16 483.29-13.67 483.76-12.18 483.76-10.3ZM495.42-35.01L495.42-20.7 517.71-20.7 517.71-35.01 524.06-35.01 524.06 0 517.71 0 517.71-14.31 495.42-14.31 495.42 0 489.08 0 489.08-35.01 495.42-35.01ZM550.18-17.5L568.18 0 559.17 0 544.88-14.31 540.42-14.31 540.42-20.7 544.88-20.7 559.17-35.01 568.18-35.01 550.18-17.5ZM537.88-35.01L537.88 0 531.53 0 531.53-35.01 537.88-35.01ZM578.55-35.01L578.55 0 572.2 0 572.2-35.01 578.55-35.01Z" opacity="1" transform="matrix(1,0,0,1,0,0)" fill="#0c1d36" class="undefined-text-0" data-fill-palette-color="quaternary" id="text-0"></path></svg></g></svg></g></svg></g></svg></g><g transform="matrix(1,0,0,1,0,2.2080895361198998)"><svg viewBox="0 0 54.81510417478978 54.81510417478978" height="54.81510417478978" width="54.81510417478978"><g><svg xmlns="http://www.w3.org/2000/svg" xmlns:xlink="http://www.w3.org/1999/xlink" version="1.1" x="0" y="0" viewBox="0.5 0.5 70.99999237060547 70.99999237060547" enable-background="new 0 0 72 72" xml:space="preserve" height="54.81510417478978" width="54.81510417478978" class="icon-icon-0" data-fill-palette-color="accent" id="icon-0"><g fill="#f9cd1a" data-fill-palette-color="accent"><g fill="#f9cd1a" data-fill-palette-color="accent"><path d="M69.8 0.5H2.2c-0.9 0-1.7 0.8-1.7 1.7v67.6c0 0.9 0.8 1.7 1.7 1.7h67.6c0.9 0 1.7-0.8 1.7-1.7V2.2C71.5 1.3 70.7 0.5 69.8 0.5zM25 4.5c1.2 0 2.1 0.9 2.1 2.1 0 1.2-0.9 2.1-2.1 2.1-1.2 0-2.1-0.9-2.1-2.1C22.9 5.4 23.8 4.5 25 4.5zM16.1 4.5c1.2 0 2.1 0.9 2.1 2.1 0 1.2-0.9 2.1-2.1 2.1S14 7.8 14 6.6C14 5.4 15 4.5 16.1 4.5zM7.3 4.5c1.2 0 2.1 0.9 2.1 2.1 0 1.2-0.9 2.1-2.1 2.1S5.2 7.8 5.2 6.6C5.2 5.4 6.1 4.5 7.3 4.5zM66.5 64.8c0 0.9-0.8 1.7-1.7 1.7H7.2c-0.9 0-1.7-0.8-1.7-1.7V16.5c0-0.9 0.8-1.7 1.7-1.7h57.6c0.9 0 1.7 0.8 1.7 1.7V64.8z" fill="#f9cd1a" data-fill-palette-color="accent"></path></g><g fill="#f9cd1a" data-fill-palette-color="accent"><g fill="#f9cd1a" data-fill-palette-color="accent"><g fill="#f9cd1a" data-fill-palette-color="accent"><path d="M50.2 51.4c-0.7 0-1.4-0.3-1.9-0.9-0.9-1-0.7-2.6 0.2-3.5l5.9-5.9c0.5-0.5 0.5-1.4 0-1.9l-5.9-5.9c-0.9-0.9-1.1-2.4-0.3-3.4 1-1.2 2.7-1.2 3.7-0.2l8.8 8.8c0.5 0.5 0.7 1.1 0.7 1.8 0 0.7-0.3 1.3-0.7 1.8L52 50.7C51.5 51.1 50.8 51.4 50.2 51.4z" fill="#f9cd1a" data-fill-palette-color="accent"></path></g><g fill="#f9cd1a" data-fill-palette-color="accent"><path d="M21.8 51.4c-0.6 0-1.3-0.2-1.8-0.7l-8.8-8.8c-0.5-0.5-0.7-1.1-0.7-1.8 0-0.7 0.3-1.3 0.7-1.8l8.7-8.7c0.9-0.9 2.4-1.1 3.4-0.3 1.2 1 1.2 2.7 0.2 3.7l-6 6c-0.5 0.5-0.5 1.4 0 1.9l5.9 5.9c0.9 0.9 1.1 2.5 0.2 3.5C23.2 51.1 22.5 51.4 21.8 51.4z" fill="#f9cd1a" data-fill-palette-color="accent"></path></g></g><g fill="#f9cd1a" data-fill-palette-color="accent"><path d="M30.7 57.4c-0.3 0-0.6 0-0.8-0.1-1.3-0.5-2-1.9-1.5-3.2l10.5-29.5c0.5-1.3 1.9-2 3.2-1.5 1.3 0.5 2 1.9 1.5 3.2L33.1 55.7C32.7 56.7 31.8 57.4 30.7 57.4z" fill="#f9cd1a" data-fill-palette-color="accent"></path></g></g></g></svg></g></svg></g></svg></g><defs></defs></svg><rect width="395.52" height="56.112655012612144" fill="none" stroke="none" visibility="hidden"></rect></g></svg></g></svg>